<svg width="18" height="18" viewBox="0 0 18 18" fill="none" xmlns="http://www.w3.org/2000/svg">
<path id="Intersect" d="M9.58369 17.0091L17.0087 9.58415C17.0854 9.50753 17.1462 9.41654 17.1878 9.31638C17.2251 9.22631 17.2461 9.13042 17.25 9.03316V8.96776C17.2461 8.8705 17.2251 8.77461 17.1878 8.68453C17.1462 8.58438 17.0854 8.49339 17.0087 8.41677L9.58369 0.991771C9.42888 0.836968 9.21893 0.75 9 0.75C8.78108 0.75 8.57112 0.836968 8.41631 0.991771C8.26151 1.14657 8.17454 1.35653 8.17454 1.57546C8.17454 1.79438 8.26151 2.00434 8.41631 2.15915L14.4337 8.17546H1.575C1.11937 8.17546 0.75 8.54482 0.75 9.00046V9.00046C0.75 9.45609 1.11936 9.82546 1.575 9.82546H14.4337L8.41631 15.8418C8.26151 15.9966 8.17454 16.2065 8.17454 16.4255C8.17454 16.6444 8.26151 16.8543 8.41631 17.0091C8.56191 17.1547 8.75629 17.2403 8.96104 17.25H9.03896C9.24371 17.2403 9.43809 17.1547 9.58369 17.0091Z" fill="#151515"/>
</svg>
