<svg width="46" height="55" viewBox="0 0 46 55" fill="none" xmlns="http://www.w3.org/2000/svg">
<g id="Scroll Vector">
<path id="Vector" d="M23.5 27C23.7761 27 24 26.7761 24 26.5C24 26.2239 23.7761 26 23.5 26C23.2239 26 23 26.2239 23 26.5C23 26.7761 23.2239 27 23.5 27Z" fill="#D8499C"/>
<path id="Vector_2" d="M0.5 19C0.776142 19 1 18.7761 1 18.5C1 18.2239 0.776142 18 0.5 18C0.223858 18 0 18.2239 0 18.5C0 18.7761 0.223858 19 0.5 19Z" fill="#D8499C"/>
<path id="Vector_3" d="M0.5 25C0.776142 25 1 24.7761 1 24.5C1 24.2239 0.776142 24 0.5 24C0.223858 24 0 24.2239 0 24.5C0 24.7761 0.223858 25 0.5 25Z" fill="#D8499C"/>
<path id="Vector_4" d="M0.5 30C0.776142 30 1 29.7761 1 29.5C1 29.2239 0.776142 29 0.5 29C0.223858 29 0 29.2239 0 29.5C0 29.7761 0.223858 30 0.5 30Z" fill="#D8499C"/>
<path id="Vector_5" d="M0.5 35C0.776142 35 1 34.7761 1 34.5C1 34.2239 0.776142 34 0.5 34C0.223858 34 0 34.2239 0 34.5C0 34.7761 0.223858 35 0.5 35Z" fill="#D8499C"/>
<path id="Vector_6" d="M13.5 27C13.7761 27 14 26.7761 14 26.5C14 26.2239 13.7761 26 13.5 26C13.2239 26 13 26.2239 13 26.5C13 26.7761 13.2239 27 13.5 27Z" fill="#D8499C"/>
<path id="Vector_7" d="M4.5 22C4.77614 22 5 21.7761 5 21.5C5 21.2239 4.77614 21 4.5 21C4.22386 21 4 21.2239 4 21.5C4 21.7761 4.22386 22 4.5 22Z" fill="#D8499C"/>
<path id="Vector_8" d="M4.5 27C4.77614 27 5 26.7761 5 26.5C5 26.2239 4.77614 26 4.5 26C4.22386 26 4 26.2239 4 26.5C4 26.7761 4.22386 27 4.5 27Z" fill="#D8499C"/>
<path id="Vector_9" d="M4.5 32C4.77614 32 5 31.7761 5 31.5C5 31.2239 4.77614 31 4.5 31C4.22386 31 4 31.2239 4 31.5C4 31.7761 4.22386 32 4.5 32Z" fill="#D8499C"/>
<path id="Vector_10" d="M9.5 30C9.77614 30 10 29.7761 10 29.5C10 29.2239 9.77614 29 9.5 29C9.22386 29 9 29.2239 9 29.5C9 29.7761 9.22386 30 9.5 30Z" fill="#D8499C"/>
<path id="Vector_11" d="M9.5 24C9.77614 24 10 23.7761 10 23.5C10 23.2239 9.77614 23 9.5 23C9.22386 23 9 23.2239 9 23.5C9 23.7761 9.22386 24 9.5 24Z" fill="#D8499C"/>
<path id="Vector_12" d="M0.5 14C0.776142 14 1 13.7761 1 13.5C1 13.2239 0.776142 13 0.5 13C0.223858 13 0 13.2239 0 13.5C0 13.7761 0.223858 14 0.5 14Z" fill="#D8499C"/>
<path id="Vector_13" d="M4.5 11C4.77614 11 5 10.7761 5 10.5C5 10.2239 4.77614 10 4.5 10C4.22386 10 4 10.2239 4 10.5C4 10.7761 4.22386 11 4.5 11Z" fill="#D8499C"/>
<path id="Vector_14" d="M9.5 9C9.77614 9 10 8.77614 10 8.5C10 8.22386 9.77614 8 9.5 8C9.22386 8 9 8.22386 9 8.5C9 8.77614 9.22386 9 9.5 9Z" fill="#D8499C"/>
<path id="Vector_15" d="M13.5 6C13.7761 6 14 5.77614 14 5.5C14 5.22386 13.7761 5 13.5 5C13.2239 5 13 5.22386 13 5.5C13 5.77614 13.2239 6 13.5 6Z" fill="#D8499C"/>
<path id="Vector_16" d="M18.5 3C18.7761 3 19 2.77614 19 2.5C19 2.22386 18.7761 2 18.5 2C18.2239 2 18 2.22386 18 2.5C18 2.77614 18.2239 3 18.5 3Z" fill="#D8499C"/>
<path id="Vector_17" d="M23.5 1C23.7761 1 24 0.776142 24 0.5C24 0.223858 23.7761 0 23.5 0C23.2239 0 23 0.223858 23 0.5C23 0.776142 23.2239 1 23.5 1Z" fill="#D8499C"/>
<path id="Vector_18" d="M27.5 3C27.7761 3 28 2.77614 28 2.5C28 2.22386 27.7761 2 27.5 2C27.2239 2 27 2.22386 27 2.5C27 2.77614 27.2239 3 27.5 3Z" fill="#D8499C"/>
<path id="Vector_19" d="M32.5 6C32.7761 6 33 5.77614 33 5.5C33 5.22386 32.7761 5 32.5 5C32.2239 5 32 5.22386 32 5.5C32 5.77614 32.2239 6 32.5 6Z" fill="#D8499C"/>
<path id="Vector_20" d="M36.5 9C36.7761 9 37 8.77614 37 8.5C37 8.22386 36.7761 8 36.5 8C36.2239 8 36 8.22386 36 8.5C36 8.77614 36.2239 9 36.5 9Z" fill="#D8499C"/>
<path id="Vector_21" d="M41.5 11C41.7761 11 42 10.7761 42 10.5C42 10.2239 41.7761 10 41.5 10C41.2239 10 41 10.2239 41 10.5C41 10.7761 41.2239 11 41.5 11Z" fill="#D8499C"/>
<path id="Vector_22" d="M45.5 14C45.7761 14 46 13.7761 46 13.5C46 13.2239 45.7761 13 45.5 13C45.2239 13 45 13.2239 45 13.5C45 13.7761 45.2239 14 45.5 14Z" fill="#D8499C"/>
<path id="Vector_23" d="M45.5 19C45.7761 19 46 18.7761 46 18.5C46 18.2239 45.7761 18 45.5 18C45.2239 18 45 18.2239 45 18.5C45 18.7761 45.2239 19 45.5 19Z" fill="#D8499C"/>
<path id="Vector_24" d="M45.5 25C45.7761 25 46 24.7761 46 24.5C46 24.2239 45.7761 24 45.5 24C45.2239 24 45 24.2239 45 24.5C45 24.7761 45.2239 25 45.5 25Z" fill="#D8499C"/>
<path id="Vector_25" d="M45.5 30C45.7761 30 46 29.7761 46 29.5C46 29.2239 45.7761 29 45.5 29C45.2239 29 45 29.2239 45 29.5C45 29.7761 45.2239 30 45.5 30Z" fill="#D8499C"/>
<path id="Vector_26" d="M45.5 35C45.7761 35 46 34.7761 46 34.5C46 34.2239 45.7761 34 45.5 34C45.2239 34 45 34.2239 45 34.5C45 34.7761 45.2239 35 45.5 35Z" fill="#D8499C"/>
<path id="Vector_27" d="M45.5 40C45.7761 40 46 39.7761 46 39.5C46 39.2239 45.7761 39 45.5 39C45.2239 39 45 39.2239 45 39.5C45 39.7761 45.2239 40 45.5 40Z" fill="#D8499C"/>
<path id="Vector_28" d="M41.5 43C41.7761 43 42 42.7761 42 42.5C42 42.2239 41.7761 42 41.5 42C41.2239 42 41 42.2239 41 42.5C41 42.7761 41.2239 43 41.5 43Z" fill="#D8499C"/>
<path id="Vector_29" d="M36.5 46C36.7761 46 37 45.7761 37 45.5C37 45.2239 36.7761 45 36.5 45C36.2239 45 36 45.2239 36 45.5C36 45.7761 36.2239 46 36.5 46Z" fill="#D8499C"/>
<path id="Vector_30" d="M32.5 49C32.7761 49 33 48.7761 33 48.5C33 48.2239 32.7761 48 32.5 48C32.2239 48 32 48.2239 32 48.5C32 48.7761 32.2239 49 32.5 49Z" fill="#D8499C"/>
<path id="Vector_31" d="M27.5 51C27.7761 51 28 50.7761 28 50.5C28 50.2239 27.7761 50 27.5 50C27.2239 50 27 50.2239 27 50.5C27 50.7761 27.2239 51 27.5 51Z" fill="#D8499C"/>
<path id="Vector_32" d="M23.2523 54.0735C23.5314 54.0735 23.7576 53.8473 23.7576 53.5683C23.7576 53.2892 23.5314 53.063 23.2523 53.063C22.9733 53.063 22.7471 53.2892 22.7471 53.5683C22.7471 53.8473 22.9733 54.0735 23.2523 54.0735Z" fill="#D8499C"/>
<path id="Vector_33" d="M18.5 51C18.7761 51 19 50.7761 19 50.5C19 50.2239 18.7761 50 18.5 50C18.2239 50 18 50.2239 18 50.5C18 50.7761 18.2239 51 18.5 51Z" fill="#D8499C"/>
<path id="Vector_34" d="M13.5 49C13.7761 49 14 48.7761 14 48.5C14 48.2239 13.7761 48 13.5 48C13.2239 48 13 48.2239 13 48.5C13 48.7761 13.2239 49 13.5 49Z" fill="#D8499C"/>
<path id="Vector_35" d="M9.5 46C9.77614 46 10 45.7761 10 45.5C10 45.2239 9.77614 45 9.5 45C9.22386 45 9 45.2239 9 45.5C9 45.7761 9.22386 46 9.5 46Z" fill="#D8499C"/>
<path id="Vector_36" d="M4.5 43C4.77614 43 5 42.7761 5 42.5C5 42.2239 4.77614 42 4.5 42C4.22386 42 4 42.2239 4 42.5C4 42.7761 4.22386 43 4.5 43Z" fill="#D8499C"/>
<path id="Vector_37" d="M0.5 40C0.776142 40 1 39.7761 1 39.5C1 39.2239 0.776142 39 0.5 39C0.223858 39 0 39.2239 0 39.5C0 39.7761 0.223858 40 0.5 40Z" fill="#D8499C"/>
<path id="Vector_38" d="M13.5 22C13.7761 22 14 21.7761 14 21.5C14 21.2239 13.7761 21 13.5 21C13.2239 21 13 21.2239 13 21.5C13 21.7761 13.2239 22 13.5 22Z" fill="#D8499C"/>
<path id="Vector_39" d="M18.5 19C18.7761 19 19 18.7761 19 18.5C19 18.2239 18.7761 18 18.5 18C18.2239 18 18 18.2239 18 18.5C18 18.7761 18.2239 19 18.5 19Z" fill="#D8499C"/>
<path id="Vector_40" d="M23.5 16C23.7761 16 24 15.7761 24 15.5C24 15.2239 23.7761 15 23.5 15C23.2239 15 23 15.2239 23 15.5C23 15.7761 23.2239 16 23.5 16Z" fill="#D8499C"/>
<path id="Vector_41" d="M27.5 19C27.7761 19 28 18.7761 28 18.5C28 18.2239 27.7761 18 27.5 18C27.2239 18 27 18.2239 27 18.5C27 18.7761 27.2239 19 27.5 19Z" fill="#D8499C"/>
<path id="Vector_42" d="M32.5 22C32.7761 22 33 21.7761 33 21.5C33 21.2239 32.7761 21 32.5 21C32.2239 21 32 21.2239 32 21.5C32 21.7761 32.2239 22 32.5 22Z" fill="#D8499C"/>
<path id="Vector_43" d="M32.5 27C32.7761 27 33 26.7761 33 26.5C33 26.2239 32.7761 26 32.5 26C32.2239 26 32 26.2239 32 26.5C32 26.7761 32.2239 27 32.5 27Z" fill="#D8499C"/>
<path id="Vector_44" d="M32.5 33C32.7761 33 33 32.7761 33 32.5C33 32.2239 32.7761 32 32.5 32C32.2239 32 32 32.2239 32 32.5C32 32.7761 32.2239 33 32.5 33Z" fill="#D8499C"/>
<path id="Vector_45" d="M27.5 35C27.7761 35 28 34.7761 28 34.5C28 34.2239 27.7761 34 27.5 34C27.2239 34 27 34.2239 27 34.5C27 34.7761 27.2239 35 27.5 35Z" fill="#D8499C"/>
<path id="Vector_46" d="M23.5 38C23.7761 38 24 37.7761 24 37.5C24 37.2239 23.7761 37 23.5 37C23.2239 37 23 37.2239 23 37.5C23 37.7761 23.2239 38 23.5 38Z" fill="#D8499C"/>
<path id="Vector_47" d="M18.5 35C18.7761 35 19 34.7761 19 34.5C19 34.2239 18.7761 34 18.5 34C18.2239 34 18 34.2239 18 34.5C18 34.7761 18.2239 35 18.5 35Z" fill="#D8499C"/>
<path id="Vector_48" d="M13.5 33C13.7761 33 14 32.7761 14 32.5C14 32.2239 13.7761 32 13.5 32C13.2239 32 13 32.2239 13 32.5C13 32.7761 13.2239 33 13.5 33Z" fill="#D8499C"/>
<path id="Vector_49" d="M4.5 17C4.77614 17 5 16.7761 5 16.5C5 16.2239 4.77614 16 4.5 16C4.22386 16 4 16.2239 4 16.5C4 16.7761 4.22386 17 4.5 17Z" fill="#D8499C"/>
<path id="Vector_50" d="M9.5 14C9.77614 14 10 13.7761 10 13.5C10 13.2239 9.77614 13 9.5 13C9.22386 13 9 13.2239 9 13.5C9 13.7761 9.22386 14 9.5 14Z" fill="#D8499C"/>
<path id="Vector_51" d="M13.5 11C13.7761 11 14 10.7761 14 10.5C14 10.2239 13.7761 10 13.5 10C13.2239 10 13 10.2239 13 10.5C13 10.7761 13.2239 11 13.5 11Z" fill="#D8499C"/>
<path id="Vector_52" d="M18.5 9C18.7761 9 19 8.77614 19 8.5C19 8.22386 18.7761 8 18.5 8C18.2239 8 18 8.22386 18 8.5C18 8.77614 18.2239 9 18.5 9Z" fill="#D8499C"/>
<path id="Vector_53" d="M23.5 6C23.7761 6 24 5.77614 24 5.5C24 5.22386 23.7761 5 23.5 5C23.2239 5 23 5.22386 23 5.5C23 5.77614 23.2239 6 23.5 6Z" fill="#D8499C"/>
<path id="Vector_54" d="M27.5 9C27.7761 9 28 8.77614 28 8.5C28 8.22386 27.7761 8 27.5 8C27.2239 8 27 8.22386 27 8.5C27 8.77614 27.2239 9 27.5 9Z" fill="#D8499C"/>
<path id="Vector_55" d="M32.5 11C32.7761 11 33 10.7761 33 10.5C33 10.2239 32.7761 10 32.5 10C32.2239 10 32 10.2239 32 10.5C32 10.7761 32.2239 11 32.5 11Z" fill="#D8499C"/>
<path id="Vector_56" d="M36.5 14C36.7761 14 37 13.7761 37 13.5C37 13.2239 36.7761 13 36.5 13C36.2239 13 36 13.2239 36 13.5C36 13.7761 36.2239 14 36.5 14Z" fill="#D8499C"/>
<path id="Vector_57" d="M41.5 17C41.7761 17 42 16.7761 42 16.5C42 16.2239 41.7761 16 41.5 16C41.2239 16 41 16.2239 41 16.5C41 16.7761 41.2239 17 41.5 17Z" fill="#D8499C"/>
<path id="Vector_58" d="M41.5 22C41.7761 22 42 21.7761 42 21.5C42 21.2239 41.7761 21 41.5 21C41.2239 21 41 21.2239 41 21.5C41 21.7761 41.2239 22 41.5 22Z" fill="#D8499C"/>
<path id="Vector_59" d="M41.5 27C41.7761 27 42 26.7761 42 26.5C42 26.2239 41.7761 26 41.5 26C41.2239 26 41 26.2239 41 26.5C41 26.7761 41.2239 27 41.5 27Z" fill="#D8499C"/>
<path id="Vector_60" d="M41.5 32C41.7761 32 42 31.7761 42 31.5C42 31.2239 41.7761 31 41.5 31C41.2239 31 41 31.2239 41 31.5C41 31.7761 41.2239 32 41.5 32Z" fill="#D8499C"/>
<path id="Vector_61" d="M41.5 37C41.7761 37 42 36.7761 42 36.5C42 36.2239 41.7761 36 41.5 36C41.2239 36 41 36.2239 41 36.5C41 36.7761 41.2239 37 41.5 37Z" fill="#D8499C"/>
<path id="Vector_62" d="M36.5 40C36.7761 40 37 39.7761 37 39.5C37 39.2239 36.7761 39 36.5 39C36.2239 39 36 39.2239 36 39.5C36 39.7761 36.2239 40 36.5 40Z" fill="#D8499C"/>
<path id="Vector_63" d="M32.5 43C32.7761 43 33 42.7761 33 42.5C33 42.2239 32.7761 42 32.5 42C32.2239 42 32 42.2239 32 42.5C32 42.7761 32.2239 43 32.5 43Z" fill="#D8499C"/>
<path id="Vector_64" d="M27.5 46C27.7761 46 28 45.7761 28 45.5C28 45.2239 27.7761 45 27.5 45C27.2239 45 27 45.2239 27 45.5C27 45.7761 27.2239 46 27.5 46Z" fill="#D8499C"/>
<path id="Vector_65" d="M23.5 49C23.7761 49 24 48.7761 24 48.5C24 48.2239 23.7761 48 23.5 48C23.2239 48 23 48.2239 23 48.5C23 48.7761 23.2239 49 23.5 49Z" fill="#D8499C"/>
<path id="Vector_66" d="M23.5 43C23.7761 43 24 42.7761 24 42.5C24 42.2239 23.7761 42 23.5 42C23.2239 42 23 42.2239 23 42.5C23 42.7761 23.2239 43 23.5 43Z" fill="#D8499C"/>
<path id="Vector_67" d="M18.5 46C18.7761 46 19 45.7761 19 45.5C19 45.2239 18.7761 45 18.5 45C18.2239 45 18 45.2239 18 45.5C18 45.7761 18.2239 46 18.5 46Z" fill="#D8499C"/>
<path id="Vector_68" d="M13.5 43C13.7761 43 14 42.7761 14 42.5C14 42.2239 13.7761 42 13.5 42C13.2239 42 13 42.2239 13 42.5C13 42.7761 13.2239 43 13.5 43Z" fill="#D8499C"/>
<path id="Vector_69" d="M9.5 40C9.77614 40 10 39.7761 10 39.5C10 39.2239 9.77614 39 9.5 39C9.22386 39 9 39.2239 9 39.5C9 39.7761 9.22386 40 9.5 40Z" fill="#D8499C"/>
<path id="Vector_70" d="M4.5 37C4.77614 37 5 36.7761 5 36.5C5 36.2239 4.77614 36 4.5 36C4.22386 36 4 36.2239 4 36.5C4 36.7761 4.22386 37 4.5 37Z" fill="#D8499C"/>
<path id="Vector_71" d="M9.5 35C9.77614 35 10 34.7761 10 34.5C10 34.2239 9.77614 34 9.5 34C9.22386 34 9 34.2239 9 34.5C9 34.7761 9.22386 35 9.5 35Z" fill="#D8499C"/>
<path id="Vector_72" d="M13.5 38C13.7761 38 14 37.7761 14 37.5C14 37.2239 13.7761 37 13.5 37C13.2239 37 13 37.2239 13 37.5C13 37.7761 13.2239 38 13.5 38Z" fill="#D8499C"/>
<path id="Vector_73" d="M18.5 41C18.7761 41 19 40.7761 19 40.5C19 40.2239 18.7761 40 18.5 40C18.2239 40 18 40.2239 18 40.5C18 40.7761 18.2239 41 18.5 41Z" fill="#D8499C"/>
<path id="Vector_74" d="M27.5 41C27.7761 41 28 40.7761 28 40.5C28 40.2239 27.7761 40 27.5 40C27.2239 40 27 40.2239 27 40.5C27 40.7761 27.2239 41 27.5 41Z" fill="#D8499C"/>
<path id="Vector_75" d="M32.5 38C32.7761 38 33 37.7761 33 37.5C33 37.2239 32.7761 37 32.5 37C32.2239 37 32 37.2239 32 37.5C32 37.7761 32.2239 38 32.5 38Z" fill="#D8499C"/>
<path id="Vector_76" d="M37.5 35C37.7761 35 38 34.7761 38 34.5C38 34.2239 37.7761 34 37.5 34C37.2239 34 37 34.2239 37 34.5C37 34.7761 37.2239 35 37.5 35Z" fill="#D8499C"/>
<path id="Vector_77" d="M37.5 30C37.7761 30 38 29.7761 38 29.5C38 29.2239 37.7761 29 37.5 29C37.2239 29 37 29.2239 37 29.5C37 29.7761 37.2239 30 37.5 30Z" fill="#D8499C"/>
<path id="Vector_78" d="M37.5 24C37.7761 24 38 23.7761 38 23.5C38 23.2239 37.7761 23 37.5 23C37.2239 23 37 23.2239 37 23.5C37 23.7761 37.2239 24 37.5 24Z" fill="#D8499C"/>
<path id="Vector_79" d="M37.5 19C37.7761 19 38 18.7761 38 18.5C38 18.2239 37.7761 18 37.5 18C37.2239 18 37 18.2239 37 18.5C37 18.7761 37.2239 19 37.5 19Z" fill="#D8499C"/>
<path id="Vector_80" d="M32.5 16C32.7761 16 33 15.7761 33 15.5C33 15.2239 32.7761 15 32.5 15C32.2239 15 32 15.2239 32 15.5C32 15.7761 32.2239 16 32.5 16Z" fill="#D8499C"/>
<path id="Vector_81" d="M27.5 14C27.7761 14 28 13.7761 28 13.5C28 13.2239 27.7761 13 27.5 13C27.2239 13 27 13.2239 27 13.5C27 13.7761 27.2239 14 27.5 14Z" fill="#D8499C"/>
<path id="Vector_82" d="M23.5 11C23.7761 11 24 10.7761 24 10.5C24 10.2239 23.7761 10 23.5 10C23.2239 10 23 10.2239 23 10.5C23 10.7761 23.2239 11 23.5 11Z" fill="#D8499C"/>
<path id="Vector_83" d="M18.5 14C18.7761 14 19 13.7761 19 13.5C19 13.2239 18.7761 13 18.5 13C18.2239 13 18 13.2239 18 13.5C18 13.7761 18.2239 14 18.5 14Z" fill="#D8499C"/>
<path id="Vector_84" d="M13.5 16C13.7761 16 14 15.7761 14 15.5C14 15.2239 13.7761 15 13.5 15C13.2239 15 13 15.2239 13 15.5C13 15.7761 13.2239 16 13.5 16Z" fill="#D8499C"/>
<path id="Vector_85" d="M9.5 19C9.77614 19 10 18.7761 10 18.5C10 18.2239 9.77614 18 9.5 18C9.22386 18 9 18.2239 9 18.5C9 18.7761 9.22386 19 9.5 19Z" fill="#D8499C"/>
<path id="Vector_86" d="M18.5 30C18.7761 30 19 29.7761 19 29.5C19 29.2239 18.7761 29 18.5 29C18.2239 29 18 29.2239 18 29.5C18 29.7761 18.2239 30 18.5 30Z" fill="#D8499C"/>
<path id="Vector_87" d="M23.5 33C23.7761 33 24 32.7761 24 32.5C24 32.2239 23.7761 32 23.5 32C23.2239 32 23 32.2239 23 32.5C23 32.7761 23.2239 33 23.5 33Z" fill="#D8499C"/>
<path id="Vector_88" d="M28.5 30C28.7761 30 29 29.7761 29 29.5C29 29.2239 28.7761 29 28.5 29C28.2239 29 28 29.2239 28 29.5C28 29.7761 28.2239 30 28.5 30Z" fill="#D8499C"/>
<path id="Vector_89" d="M28.5 24C28.7761 24 29 23.7761 29 23.5C29 23.2239 28.7761 23 28.5 23C28.2239 23 28 23.2239 28 23.5C28 23.7761 28.2239 24 28.5 24Z" fill="#D8499C"/>
<path id="Vector_90" d="M23.5 21C23.7761 21 24 20.7761 24 20.5C24 20.2239 23.7761 20 23.5 20C23.2239 20 23 20.2239 23 20.5C23 20.7761 23.2239 21 23.5 21Z" fill="#D8499C"/>
<path id="Vector_91" d="M18.5 24C18.7761 24 19 23.7761 19 23.5C19 23.2239 18.7761 23 18.5 23C18.2239 23 18 23.2239 18 23.5C18 23.7761 18.2239 24 18.5 24Z" fill="#D8499C"/>
</g>
</svg>
